<?xml version="1.0" encoding="utf-8"?>
<!-- Generator: Adobe Illustrator 23.0.3, SVG Export Plug-In . SVG Version: 6.00 Build 0)  -->
<svg version="1.1" id="Layer_1" xmlns="http://www.w3.org/2000/svg" xmlns:xlink="http://www.w3.org/1999/xlink" x="0px" y="0px"
	 viewBox="0 0 144.7 107" style="enable-background:new 0 0 144.7 107;" xml:space="preserve">
<style type="text/css">
	.st0{fill:#5CC4C4;}
	.st1{fill:#293895;}
	.st2{fill:#2555A5;}
	.st3{fill:#1B75BB;}
</style>
<path class="st0" d="M82.4,39.3c0.4-0.9,0.7-1.8,0.7-2.8c0-2.5-0.9-4.2-2.3-5.4c-0.3,0.2-0.6,0.4-0.9,0.6c-0.8,0.6-1.6,1.2-2.4,1.7
	c-0.6,0.4-1.2,0.8-1.8,1.2c2.3,1.1,4,2.5,4,5c0,1.5-0.9,4.4-5.7,4.4c-0.4,0-0.7,0-1.1-0.1c-0.3,0-0.7-0.1-1-0.2c0,0,0,0-0.1,0l0,0
	c-1.5-0.4-2.8-1.1-3.7-2c-0.6-0.5-1-1.1-1.4-1.8c-2.2-3.7-1.7-8.5-1.7-8.5s-2.3,5.8-2.2,7.8s2.6,10.6,11.3,10.3
	C81.7,49.2,84,44,84,44l-0.3-4.5L82.4,39.3z M75.4,44.1c0.5-0.1,1-0.2,1.5-0.3C76.4,44,75.9,44.1,75.4,44.1"/>
<path class="st0" d="M80.2,22.1c0.1,2.5-1.8,3.9-4.1,5c1.7,0.7,3.4,1.3,5.2,2c0.2,0.1,0.4,0.2,0.6,0.3c0.9-1.1,1.5-2.5,1.4-4.5
	c-0.1-2.5-1.8-4.6-4.3-5.8c0,0.1-0.2,0.2-0.3,0.2C79.8,20.2,80.2,21.4,80.2,22.1"/>
<path class="st1" d="M67.6,0v8c0,3.8,2.3,7.2,5.8,8.7c4.8,2,9.2,4,9.2,9.1c0,1.3-0.5,3.4-2.2,4.9c0.2,0,0.4,0.2,0.5,0.4
	c4.2-2.1,7-6,7-10.3C87.9,6.3,67.9,9.4,67.6,0"/>
<path class="st1" d="M56.3,12.7v17.6c0.9-0.4,1.8-8.4,2.8-8.8c3.5-1.5,5.8-4.9,5.8-8.7v-8C64.8,9.1,60.7,10.9,56.3,12.7"/>
<path class="st1" d="M67.6,17.1v8c0,3.8,2.3,7.2,5.8,8.7c4.8,2,9.2,4,9.2,9.1c0,2.3-1.4,6.9-8.9,6.9c-6.6,0-11.3-4.4-11.9-7.6
	c-0.1-0.1-0.1-0.2-0.2-0.3c0,0.3,0.1,0.5,0.2,0.9c1,3.2,5.5,7.1,11.8,7.1c7.8,0,14.2-5.6,14.2-12C87.9,23.4,67.9,26.5,67.6,17.1"/>
<path class="st1" d="M64.9,46.8c0,0-8.6-6.4-8.6-16.5V24c0-13.2,8.6-14.4,8.6-14.4V46.8z"/>
<path class="st1" d="M64.9,36.9c0,0-0.7,12.9,8.4,12.9c0,0-7.1,0.1-10.6-5.5L64.9,36.9z"/>
<path class="st1" d="M87.9,4.3c0,2.3-1.9,4.3-4.3,4.3s-4.3-1.9-4.3-4.3C79.3,2,81.2,0,83.6,0S87.9,1.9,87.9,4.3"/>
<path class="st1" d="M69.6,47.6l0.8-0.8c0.3-0.3,0.4-0.5,0.4-0.7s-0.2-0.4-0.4-0.4s-0.3,0.1-0.5,0.3l-0.3-0.3
	c0.2-0.3,0.5-0.5,0.8-0.5c0.5,0,0.8,0.3,0.8,0.7l0,0c0,0.4-0.2,0.6-0.6,1l-0.5,0.6h1.1V48h-1.7L69.6,47.6L69.6,47.6z"/>
<path class="st1" d="M71.7,46.7L71.7,46.7c0-0.8,0.4-1.4,1-1.4s1,0.5,1,1.3l0,0c0,0.8-0.4,1.3-1,1.3C72.1,48,71.7,47.5,71.7,46.7
	 M73.2,46.7L73.2,46.7c0-0.6-0.2-1-0.6-1c-0.3,0-0.6,0.3-0.6,0.9l0,0c0,0.6,0.2,0.9,0.6,0.9C73,47.6,73.2,47.3,73.2,46.7"/>
<polygon class="st1" points="74.5,45.8 74.1,45.9 74,45.5 74.6,45.3 74.9,45.3 74.9,48 74.5,48 "/>
<path class="st1" d="M75.5,47.3L75.5,47.3c0-0.3,0.2-0.5,0.4-0.6c-0.2-0.1-0.3-0.3-0.3-0.6l0,0c0-0.4,0.3-0.7,0.8-0.7
	s0.8,0.3,0.8,0.7l0,0c0,0.3-0.2,0.5-0.3,0.6c0.3,0.1,0.4,0.3,0.4,0.6l0,0c0,0.5-0.4,0.8-0.9,0.8C75.9,48,75.5,47.7,75.5,47.3
	 M76.8,47.2L76.8,47.2c0-0.3-0.2-0.4-0.5-0.4s-0.5,0.2-0.5,0.4l0,0c0,0.2,0.2,0.4,0.5,0.4C76.7,47.6,76.8,47.5,76.8,47.2 M76.8,46
	L76.8,46c0-0.2-0.2-0.4-0.4-0.4S76,45.8,76,46l0,0c0,0.2,0.2,0.4,0.4,0.4S76.8,46.3,76.8,46"/>
<g>
	<path class="st2" d="M45,56.4h2.7v11H45V56.4z"/>
	<path class="st2" d="M48.6,65.9l1.5-2.1c0.9,0.7,1.8,1.2,2.9,1.2c0.7,0,1.1-0.3,1.1-0.8v0c0-0.4-0.3-0.7-1.6-1.2
		c-2-0.7-3.4-1.5-3.4-3.5v0c0-2,1.5-3.4,3.8-3.4c1.4,0,2.7,0.4,3.8,1.3l-1.4,2.1c-0.7-0.6-1.6-1-2.5-1c-0.6,0-1,0.3-1,0.7v0
		c0,0.5,0.3,0.7,1.7,1.3c2,0.7,3.3,1.5,3.3,3.4v0c0,2.1-1.6,3.5-3.9,3.5C51.3,67.6,49.8,67.1,48.6,65.9z"/>
	<path class="st2" d="M57.9,56.4h3.8c2.5,0,4.1,1.4,4.1,3.8v0.1c0,2.7-1.8,3.9-4.2,3.9h-1v3.2h-2.7V56.4z M61.6,61.9
		c1,0,1.5-0.6,1.5-1.5v0c0-1-0.6-1.5-1.5-1.5h-0.9v3.1H61.6z"/>
	<path class="st2" d="M68.9,56.3h2.7l3.7,11.1h-2.9l-0.6-2h-3.3l-0.6,2h-2.8L68.9,56.3z M71.3,63.1l-1-3.2l-1,3.2H71.3z"/>
	<path class="st2" d="M76.3,56.4h4.2c1.4,0,2.5,0.4,3.2,1.1c0.6,0.6,0.9,1.5,0.9,2.6v0.1c0,1.6-0.8,2.7-1.9,3.3l2.2,4h-3.1L79.9,64
		h-1v3.4h-2.7V56.4z M80.3,61.7c0.9,0,1.5-0.6,1.5-1.4v0c0-0.9-0.6-1.4-1.5-1.4H79v2.9H80.3z"/>
	<path class="st2" d="M87.8,58.9h-2.6v-2.6h7.9v2.6h-2.6v8.5h-2.7V58.9z"/>
	<path class="st2" d="M96.1,56.3h2.8l3.7,11.1h-2.9l-0.6-2h-3.3l-0.6,2h-2.8L96.1,56.3z M98.4,63.1l-1-3.2l-1,3.2H98.4z"/>
	<path class="st2" d="M22.8,82v-6.7h2.7V82c0,1.3,0.6,2,1.6,2c1,0,1.6-0.6,1.6-1.9v-6.8h2.8v6.6c0,3.2-1.7,4.6-4.3,4.6
		C24.5,86.5,22.8,85.1,22.8,82z"/>
	<path class="st2" d="M32.8,75.3h2.6l3.5,5.6v-5.6h2.7v11h-2.4l-3.7-5.8v5.8h-2.7V75.3z"/>
	<path class="st2" d="M43.2,75.3h2.7v11h-2.7V75.3z"/>
	<path class="st2" d="M46.8,75.3h3l1.9,6.9l1.9-6.9h2.9L53,86.4h-2.6L46.8,75.3z"/>
	<path class="st2" d="M57.4,75.3h7.3v2.5h-4.6v1.8h4.1V82h-4.1v1.9h4.7v2.5h-7.3V75.3z"/>
	<path class="st2" d="M66,75.3h4.2c1.4,0,2.5,0.4,3.2,1.1c0.6,0.6,0.9,1.5,0.9,2.6v0.1c0,1.6-0.8,2.7-1.9,3.3l2.2,4h-3.1l-1.8-3.4
		h-1v3.4H66V75.3z M70.1,80.7c0.9,0,1.5-0.6,1.5-1.4v0c0-0.9-0.6-1.4-1.5-1.4h-1.3v2.9H70.1z"/>
	<path class="st2" d="M74.7,84.9l1.5-2.1c0.9,0.7,1.8,1.2,2.9,1.2c0.7,0,1.1-0.3,1.1-0.8v0c0-0.4-0.3-0.7-1.6-1.2
		c-2-0.7-3.4-1.5-3.4-3.5v0c0-2,1.5-3.4,3.8-3.4c1.4,0,2.7,0.4,3.8,1.3l-1.4,2.1c-0.7-0.6-1.6-1-2.5-1c-0.6,0-1,0.3-1,0.7v0
		c0,0.5,0.3,0.7,1.7,1.3c2,0.7,3.3,1.5,3.3,3.4v0c0,2.1-1.6,3.5-3.9,3.5C77.5,86.5,76,86,74.7,84.9z"/>
	<path class="st2" d="M84.1,75.3h2.7v11h-2.7V75.3z"/>
	<path class="st2" d="M90.6,77.8H88v-2.6h7.9v2.6h-2.6v8.5h-2.7V77.8z"/>
	<path class="st2" d="M99.6,82.2l-3.4-6.9h3l1.8,4l1.8-4h3l-3.4,6.9v4.2h-2.7V82.2z"/>
	<path class="st2" d="M109.7,80.9v-0.2c0-3.3,2.1-5.6,4.9-5.6c2.9,0,4.9,2.3,4.9,5.6v0.2c0,3.3-2.1,5.6-4.9,5.6
		C111.8,86.5,109.7,84.3,109.7,80.9z M116.8,80.9v-0.2c0-1.9-0.9-3.1-2.1-3.1c-1.3,0-2.1,1.2-2.1,3.1v0.2c0,1.9,0.9,3.1,2.1,3.1
		C115.9,84,116.8,82.8,116.8,80.9z"/>
	<path class="st2" d="M120.8,75.3h7.2v2.6h-4.5v2h4v2.4h-4v4.1h-2.7V75.3z"/>
	<path class="st3" d="M27.6,92.5h1.3l3.1,8.8h-1.4l-0.7-2.1h-3.2l-0.7,2.1h-1.4L27.6,92.5z M29.4,97.9l-1.2-3.5L27,97.9H29.4z"/>
	<path class="st3" d="M33.2,92.6h2.7c1.8,0,3,1.1,3,2.9v0c0,1.9-1.4,2.9-3.1,3h-1.2v2.8h-1.4V92.6z M35.8,97.1
		c1.1,0,1.7-0.7,1.7-1.6v0c0-1-0.6-1.6-1.7-1.6h-1.2v3.3H35.8z"/>
	<path class="st3" d="M40.1,92.6h2.7c1.8,0,3,1.1,3,2.9v0c0,1.9-1.4,2.9-3.1,3h-1.2v2.8h-1.4V92.6z M42.7,97.1
		c1.1,0,1.7-0.7,1.7-1.6v0c0-1-0.6-1.6-1.7-1.6h-1.2v3.3H42.7z"/>
	<path class="st3" d="M47,92.6h1.4v7.4H52v1.3h-5V92.6z"/>
	<path class="st3" d="M53.3,92.6h1.4v8.7h-1.4V92.6z"/>
	<path class="st3" d="M56.6,92.6h5.2v1.3h-3.9v2.4h3.4v1.3h-3.4v2.4h3.9v1.3h-5.3V92.6z"/>
	<path class="st3" d="M63.3,92.6h2.5c2.4,0,4,1.7,4,4.3v0.1c0,2.5-1.6,4.3-4,4.3h-2.5V92.6z M64.7,93.9v6.1h1.2c1.5,0,2.5-1.1,2.5-3
		v-0.1c0-1.9-1-3-2.5-3H64.7z"/>
	<path class="st3" d="M73.8,100.1l0.8-1.1c0.6,0.6,1.3,1,2.2,1c0.8,0,1.3-0.5,1.3-1.1v0c0-0.5-0.3-0.9-1.6-1.4
		c-1.6-0.6-2.4-1.2-2.4-2.6v0c0-1.4,1.1-2.4,2.6-2.4c1,0,1.9,0.3,2.6,1l-0.8,1.1c-0.6-0.5-1.2-0.8-1.9-0.8c-0.7,0-1.2,0.4-1.2,1v0
		c0,0.6,0.3,0.9,1.7,1.5c1.5,0.6,2.3,1.3,2.3,2.6v0c0,1.5-1.1,2.5-2.7,2.5C75.7,101.4,74.7,101,73.8,100.1z"/>
	<path class="st3" d="M80.6,97L80.6,97c0-2.7,1.6-4.5,3.7-4.5c1.2,0,1.9,0.4,2.6,1.1l-0.8,1.1c-0.5-0.5-1-0.8-1.8-0.8
		C83,93.8,82,95,82,96.9v0c0,1.9,1,3.1,2.3,3.1c0.8,0,1.3-0.4,1.8-0.9l0.8,1c-0.7,0.8-1.6,1.2-2.7,1.2C82.1,101.4,80.6,99.6,80.6,97
		z"/>
	<path class="st3" d="M88.3,92.6h1.4v8.7h-1.4V92.6z"/>
	<path class="st3" d="M91.6,92.6h5.2v1.3H93v2.4h3.4v1.3H93v2.4h3.9v1.3h-5.3V92.6z"/>
	<path class="st3" d="M98.4,92.6h1.3l3.7,5.8v-5.8h1.3v8.7h-1.2l-3.8-6v6h-1.4V92.6z"/>
	<path class="st3" d="M106.2,97L106.2,97c0-2.7,1.6-4.5,3.7-4.5c1.2,0,1.9,0.4,2.6,1.1l-0.8,1.1c-0.5-0.5-1-0.8-1.8-0.8
		c-1.3,0-2.3,1.2-2.3,3.1v0c0,1.9,1,3.1,2.3,3.1c0.8,0,1.3-0.4,1.8-0.9l0.8,1c-0.7,0.8-1.6,1.2-2.7,1.2
		C107.7,101.4,106.2,99.6,106.2,97z"/>
	<path class="st3" d="M113.8,92.6h5.2v1.3h-3.9v2.4h3.4v1.3h-3.4v2.4h3.9v1.3h-5.3V92.6z"/>
	<path class="st3" d="M120,100.1l0.8-1.1c0.6,0.6,1.3,1,2.2,1c0.8,0,1.3-0.5,1.3-1.1v0c0-0.5-0.3-0.9-1.6-1.4
		c-1.6-0.6-2.4-1.2-2.4-2.6v0c0-1.4,1.1-2.4,2.6-2.4c1,0,1.9,0.3,2.6,1l-0.8,1.1c-0.6-0.5-1.2-0.8-1.9-0.8c-0.7,0-1.2,0.4-1.2,1v0
		c0,0.6,0.3,0.9,1.7,1.5c1.5,0.6,2.3,1.3,2.3,2.6v0c0,1.5-1.1,2.5-2.7,2.5C121.9,101.4,120.9,101,120,100.1z"/>
</g>
</svg>
